<?xml version="1.0" encoding="UTF-8" standalone="no"?>
<!-- Created with Inkscape (http://www.inkscape.org/) -->

<svg
   xmlns:dc="http://purl.org/dc/elements/1.1/"
   xmlns:cc="http://creativecommons.org/ns#"
   xmlns:rdf="http://www.w3.org/1999/02/22-rdf-syntax-ns#"
   xmlns:svg="http://www.w3.org/2000/svg"
   xmlns="http://www.w3.org/2000/svg"
   xmlns:sodipodi="http://sodipodi.sourceforge.net/DTD/sodipodi-0.dtd"
   xmlns:inkscape="http://www.inkscape.org/namespaces/inkscape"
   width="185.69466"
   height="185.99973"
   viewBox="0 0 49.131709 49.212428"
   version="1.1"
   id="svg14205"
   inkscape:version="0.92.0 r15299"
   sodipodi:docname="umww.svg">
  <defs
     id="defs14199">
    <clipPath
       id="clipPath11911"
       clipPathUnits="userSpaceOnUse">
      <path
         inkscape:connector-curvature="0"
         id="path11909"
         d="M 312.711,228.189 H 450.482 V 366.19 H 312.711 Z" />
    </clipPath>
  </defs>
  <sodipodi:namedview
     id="base"
     pagecolor="#ffffff"
     bordercolor="#666666"
     borderopacity="1.0"
     inkscape:pageopacity="0.0"
     inkscape:pageshadow="2"
     inkscape:zoom="2.8967434"
     inkscape:cx="91.847331"
     inkscape:cy="91.999865"
     inkscape:document-units="mm"
     inkscape:current-layer="layer1"
     showgrid="false"
     fit-margin-top="0"
     fit-margin-left="0"
     fit-margin-right="0"
     fit-margin-bottom="0"
     units="px"
     inkscape:window-width="1280"
     inkscape:window-height="744"
     inkscape:window-x="-4"
     inkscape:window-y="-4"
     inkscape:window-maximized="1" />
  <metadata
     id="metadata14202">
    <rdf:RDF>
      <cc:Work
         rdf:about="">
        <dc:format>image/svg+xml</dc:format>
        <dc:type
           rdf:resource="http://purl.org/dc/dcmitype/StillImage" />
        <dc:title></dc:title>
      </cc:Work>
    </rdf:RDF>
  </metadata>
  <g
     inkscape:label="Layer 1"
     inkscape:groupmode="layer"
     id="layer1"
     transform="translate(-39.954679,-123.96253)">
    <g
       id="g11905"
       transform="matrix(0.35277777,0,0,-0.35277777,-70.098228,253.41038)">
      <g
         id="g11907"
         clip-path="url(#clipPath11911)">
        <g
           id="g11913"
           transform="translate(381.7118,366.1888)">
          <path
             d="M 0,0 C -38.108,0 -69.001,-30.896 -69.001,-69.001 -69.001,-107.107 -38.108,-138 0,-138 c 38.111,0 69,30.893 69,68.999 C 69,-30.896 38.111,0 0,0"
             style="fill:#ed1d24;fill-opacity:1;fill-rule:nonzero;stroke:none"
             id="path11915"
             inkscape:connector-curvature="0" />
        </g>
        <g
           id="g11917"
           transform="translate(364.8119,320.1086)">
          <path
             d="m 0,0 c 0.087,0.414 0.503,0.756 0.926,0.756 h 11.505 c 0.424,0 0.703,-0.342 0.626,-0.756 L 7.796,-25.042 c -3.187,-15.026 -13.137,-21.607 -26.317,-21.607 -8.466,0 -20.035,6.714 -16.94,21.273 l 5.222,25.372 c 0.09,0.419 0.5,0.76 0.928,0.76 h 11.505 c 0.426,0 0.704,-0.341 0.618,-0.76 l -5.166,-25.104 c -1.429,-6.714 1.272,-9.904 6.44,-9.904 5.169,0 9.189,3.055 10.581,9.572 z m 20.004,0.001 c 0.094,0.414 0.509,0.755 0.934,0.755 h 12.036 c 0.429,0 0.906,-0.327 1.057,-0.718 l 6.663,-16.584 c 0.155,-0.392 0.506,-0.448 0.773,-0.123 L 55.379,0.164 c 0.269,0.326 0.839,0.592 1.266,0.592 h 12.029 c 0.428,0 0.705,-0.341 0.612,-0.755 L 59.713,-45.03 c -0.086,-0.415 -0.505,-0.756 -0.928,-0.756 H 47.544 c -0.422,0 -0.699,0.341 -0.61,0.756 l 5.36,25.219 c 0.087,0.414 -0.071,0.493 -0.341,0.169 L 37.23,-36.69 c -0.276,-0.32 -0.566,-0.585 -0.637,-0.585 -0.073,0 -0.271,0.318 -0.447,0.71 l -7.322,16.67 c -0.173,0.386 -0.383,0.365 -0.466,-0.05 L 23.024,-45.03 c -0.092,-0.415 -0.51,-0.756 -0.934,-0.756 H 11.043 c -0.417,0 -0.694,0.341 -0.609,0.756 z"
             style="fill:#ffffff;fill-opacity:1;fill-rule:nonzero;stroke:none"
             id="path11919"
             inkscape:connector-curvature="0" />
        </g>
        <g
           id="g11921"
           transform="translate(565.0054,277.279)">
          <path
             d="M 0,0 2.637,3.158 C 4.461,1.651 6.375,0.695 8.692,0.695 c 1.826,0 2.926,0.724 2.926,1.912 v 0.058 c 0,1.13 -0.694,1.71 -4.084,2.579 -4.086,1.043 -6.723,2.173 -6.723,6.201 v 0.057 c 0,3.681 2.955,6.115 7.099,6.115 2.955,0 5.476,-0.928 7.534,-2.579 l -2.319,-3.362 c -1.796,1.247 -3.563,2 -5.273,2 -1.71,0 -2.608,-0.783 -2.608,-1.768 V 11.851 C 5.244,10.518 6.113,10.083 9.62,9.184 13.734,8.113 16.052,6.635 16.052,3.1 V 3.042 c 0,-4.027 -3.071,-6.288 -7.447,-6.288 C 5.534,-3.246 2.434,-2.174 0,0 m -19.128,17.327 h 4.462 V 8.46 l 8.229,8.867 h 5.389 L -9.306,8.72 -0.671,-2.956 h -5.36 l -6.288,8.634 -2.347,-2.433 v -6.201 h -4.462 z M -31.096,7.475 c 2.173,0 3.419,1.159 3.419,2.868 v 0.059 c 0,1.913 -1.333,2.897 -3.505,2.897 h -4.434 V 7.475 Z m -8.981,9.852 h 9.272 c 2.578,0 4.578,-0.724 5.91,-2.057 1.131,-1.13 1.739,-2.724 1.739,-4.637 v -0.057 c 0,-3.274 -1.768,-5.332 -4.346,-6.288 l 4.955,-7.244 h -5.217 l -4.346,6.49 h -3.506 v -6.49 h -4.461 z m -7.741,-10.2 v 0.059 c 0,3.477 -2.549,6.374 -6.142,6.374 -3.594,0 -6.085,-2.839 -6.085,-6.316 V 7.186 c 0,-3.478 2.549,-6.375 6.142,-6.375 3.593,0 6.085,2.84 6.085,6.316 m -16.893,0 v 0.059 c 0,5.766 4.55,10.489 10.808,10.489 6.26,0 10.75,-4.665 10.75,-10.431 V 7.186 c 0,-5.767 -4.548,-10.489 -10.807,-10.489 -6.259,0 -10.751,4.665 -10.751,10.43 m -30.778,10.2 h 4.781 l 4.202,-13.735 4.548,13.793 h 3.826 l 4.549,-13.793 4.2,13.735 h 4.666 l -6.925,-20.428 h -3.882 l -4.578,13.271 -4.58,-13.271 h -3.881 z M 55.32,31.217 47.47,43.59 h 5.254 l 4.873,-8.201 4.961,8.201 h 5.107 L 59.815,31.304 V 23.162 H 55.32 Z M 35.417,39.446 H 29.2 V 43.59 H 46.128 V 39.446 H 39.911 V 23.162 H 35.417 Z M 21.472,43.59 h 4.494 V 23.162 H 21.472 Z M 1.533,26.138 4.189,29.319 c 1.838,-1.517 3.765,-2.48 6.099,-2.48 1.839,0 2.948,0.729 2.948,1.926 v 0.059 c 0,1.138 -0.7,1.721 -4.115,2.596 -4.115,1.051 -6.771,2.19 -6.771,6.245 v 0.059 c 0,3.707 2.977,6.158 7.15,6.158 2.978,0 5.517,-0.933 7.589,-2.597 L 14.754,37.9 c -1.809,1.254 -3.59,2.013 -5.312,2.013 -1.722,0 -2.626,-0.788 -2.626,-1.781 v -0.057 c 0,-1.343 0.875,-1.781 4.406,-2.686 4.144,-1.079 6.479,-2.567 6.479,-6.128 v -0.058 c 0,-4.057 -3.093,-6.332 -7.5,-6.332 -3.093,0 -6.216,1.078 -8.668,3.267 m -6.599,7.18 v 0.058 c 0,3.502 -2.568,6.42 -6.187,6.42 -3.618,0 -6.128,-2.86 -6.128,-6.362 v -0.058 c 0,-3.502 2.568,-6.421 6.187,-6.421 3.618,0 6.128,2.86 6.128,6.363 m -17.014,0 v 0.058 c 0,5.807 4.582,10.564 10.886,10.564 6.303,0 10.826,-4.699 10.826,-10.506 v -0.058 c 0,-5.808 -4.581,-10.565 -10.885,-10.565 -6.304,0 -10.827,4.699 -10.827,10.507 m -7.87,10.272 h 4.494 V 23.162 h -4.494 z m -12.257,-9.922 c 2.189,0 3.444,1.167 3.444,2.889 v 0.058 c 0,1.927 -1.343,2.918 -3.532,2.918 h -4.465 v -5.865 z m -9.047,9.922 h 9.338 c 2.598,0 4.611,-0.73 5.954,-2.072 1.138,-1.138 1.752,-2.744 1.752,-4.67 V 36.79 c 0,-3.298 -1.781,-5.37 -4.379,-6.333 l 4.991,-7.295 h -5.253 l -4.378,6.537 h -3.531 v -6.537 h -4.494 z M -73.363,31.917 V 43.59 h 4.494 V 32.034 c 0,-3.328 1.664,-5.049 4.407,-5.049 2.743,0 4.407,1.663 4.407,4.902 V 43.59 h 4.494 V 32.062 c 0,-6.186 -3.473,-9.221 -8.96,-9.221 -5.486,0 -8.842,3.064 -8.842,9.076 m -22.122,1.401 v 0.058 c 0,5.807 4.378,10.564 10.652,10.564 3.853,0 6.158,-1.284 8.055,-3.152 l -2.86,-3.297 c -1.576,1.43 -3.181,2.305 -5.224,2.305 -3.444,0 -5.924,-2.86 -5.924,-6.362 v -0.058 c 0,-3.502 2.423,-6.421 5.924,-6.421 2.335,0 3.765,0.934 5.37,2.393 l 2.86,-2.889 c -2.102,-2.247 -4.436,-3.648 -8.376,-3.648 -6.012,0 -10.477,4.641 -10.477,10.507"
             style="fill:#000000;fill-opacity:1;fill-rule:nonzero;stroke:none"
             id="path11923"
             inkscape:connector-curvature="0" />
        </g>
      </g>
    </g>
  </g>
</svg>
